<svg width="50" height="57" viewBox="0 0 50 57" fill="none" xmlns="http://www.w3.org/2000/svg">
<g clip-path="url(#clip0_2008_88)">
<path d="M37.5819 0.144531L38.2309 0.714617C40.5614 3.0242 42.8772 5.33378 45.2225 7.62874C45.3999 7.79826 45.539 8.0032 45.6306 8.23C45.7221 8.4568 45.764 8.70028 45.7535 8.94432C45.7387 15.0399 45.7535 21.15 45.7535 27.2602C45.7535 28.1372 45.7535 28.1372 46.6237 28.1518C47.298 28.1378 47.9552 28.3627 48.4771 28.7861C48.9989 29.2095 49.3512 29.8036 49.4705 30.4614C49.5024 30.6792 49.5123 30.8995 49.5 31.1192V47.5786C49.5 49.3912 48.3052 50.5606 46.4615 50.5606C45.7535 50.5606 45.7682 50.5606 45.7387 51.2769C45.7092 51.9931 45.8567 53.0748 45.6502 53.9519C45.5252 54.581 45.1798 55.1461 44.6751 55.5473C44.1703 55.9485 43.5388 56.1601 42.8919 56.1445H7.13757C6.76017 56.1524 6.38502 56.085 6.03441 55.9464C5.6838 55.8077 5.36488 55.6007 5.09658 55.3375C4.82829 55.0744 4.6161 54.7605 4.4726 54.4145C4.32911 54.0685 4.25725 53.6974 4.26129 53.3233C4.24162 52.5242 4.24162 51.7203 4.26129 50.9114C4.27604 50.6191 4.17279 50.546 3.89253 50.5606C3.45224 50.592 3.00969 50.5575 2.57977 50.4583C1.9919 50.2979 1.47195 49.9538 1.09724 49.4771C0.722529 49.0004 0.513068 48.4166 0.5 47.8125L0.5 30.9146C0.499979 30.5493 0.573053 30.1876 0.714993 29.8505C0.856933 29.5134 1.06492 29.2075 1.32692 28.9506C1.58893 28.6937 1.89974 28.4908 2.24138 28.3537C2.58302 28.2166 2.94871 28.148 3.31728 28.1518C4.26129 28.1372 4.26129 28.1372 4.26129 27.2163C4.26129 19.3813 4.29079 11.5463 4.23179 3.71122C4.23179 1.98635 4.77754 0.75847 6.45906 0.144531H37.5819ZM41.6677 54.2735H42.8182C43.4377 54.2442 43.8064 53.908 43.8359 53.2941C43.8654 52.6802 43.8359 51.6715 43.8507 50.853C43.8507 50.6191 43.7622 50.5314 43.5262 50.546H6.70981C6.63625 50.5533 6.56213 50.5533 6.48856 50.546C6.26731 50.5314 6.14931 50.5898 6.14931 50.8383C6.16406 51.6715 6.14931 52.4901 6.16406 53.3087C6.17881 53.7034 6.32631 54.0542 6.78356 54.1712L6.90157 54.2296L7.55057 54.2735H41.6677ZM3.25828 33.7504C3.14953 33.7485 3.04107 33.7388 2.93377 33.7211C2.37327 33.4726 2.37327 33.7942 2.37327 34.2035C2.38802 35.9138 2.38802 37.624 2.38802 39.3343V47.5055C2.38802 48.0318 2.49127 48.4849 3.11078 48.6165C3.33203 48.7773 3.56803 48.7042 3.80403 48.7042H46.2255C47.317 48.7042 47.612 48.4118 47.612 47.3447V33.8381C47.612 33.6627 47.553 33.6042 47.376 33.6481C46.6385 33.8381 45.8862 33.7211 45.134 33.7211H3.86303L3.25828 33.7504ZM38.8061 9.47055C37.2426 9.19282 36.3134 8.12574 36.2986 6.54704C36.2691 5.24607 36.2691 3.93049 36.2986 2.6149C36.3134 2.13252 36.1954 2.00097 35.6791 2.00097C26.3275 2.02046 16.9661 2.02046 7.59482 2.00097C6.41481 2.00097 6.16406 2.26408 6.16406 3.46272C6.16406 12.7108 6.15914 21.9686 6.14931 31.2361C6.14931 31.7624 6.26731 31.8793 6.79831 31.8793H41.9922C42.4152 31.867 42.8387 31.8767 43.2607 31.9086C43.7622 31.967 43.8654 31.777 43.8654 31.3092C43.8359 24.2489 43.8507 17.2033 43.8507 10.143C43.8433 10.0359 43.8433 9.92845 43.8507 9.82138C43.8654 9.5875 43.7622 9.48517 43.5262 9.49979L41.9922 9.52902H41.7857L38.8061 9.47055ZM38.2014 3.44811C38.2014 4.54443 38.1866 5.59689 38.2014 6.64936C38.2161 7.2633 38.5701 7.58489 39.1896 7.58489C40.1337 7.5995 41.0629 7.5995 42.0069 7.58489C42.1249 7.58489 42.2872 7.68721 42.3609 7.55565L38.2014 3.44811ZM4.27604 30.9438C4.11379 30.6222 4.64479 29.9352 3.70078 29.9937C2.75677 30.0521 2.41752 30.3445 2.40277 30.9292C2.38802 31.5139 2.86002 31.8209 3.68603 31.8793C4.51204 31.9378 4.15804 31.3239 4.27604 30.9438ZM46.3287 30.0229C46.1812 30.1398 45.7682 29.7744 45.7535 30.2714C45.7387 30.7684 45.7387 31.1777 45.7387 31.6308C45.7304 31.6772 45.7374 31.725 45.7587 31.7671C45.7799 31.8092 45.8143 31.8434 45.8567 31.8647C46.1812 32.0255 47.1547 31.8062 47.3907 31.5139C47.5067 31.3806 47.5788 31.2153 47.5973 31.0402C47.6157 30.8652 47.5797 30.6887 47.494 30.5345C47.2727 30.096 46.8597 29.979 46.3287 30.0229Z" fill="#5D5954"/>
<path d="M47.612 33.8381C47.612 33.6627 47.553 33.6042 47.376 33.648C46.6385 33.8381 45.8862 33.7211 45.134 33.7211H3.86306L3.2583 33.7504C3.14955 33.7485 3.04109 33.7388 2.9338 33.7211C2.37329 33.4726 2.37329 33.7942 2.37329 34.2035C2.38804 35.9138 2.38804 37.624 2.38804 39.3343V47.5055C2.38804 48.0317 2.50604 48.4849 3.1108 48.6164C3.33205 48.7772 3.56805 48.7042 3.80406 48.7042H46.2255C47.317 48.7042 47.612 48.4118 47.612 47.3447V33.8381ZM36.2839 38.4718C36.2839 37.8725 36.2839 37.2732 36.2986 36.6739C36.2986 37.2732 36.2839 37.8725 36.2839 38.4718Z" fill="#ADAAA4"/>
<path d="M43.8507 10.1137C43.8433 10.0067 43.8433 9.89923 43.8507 9.79215C43.8654 9.55827 43.7622 9.45595 43.5262 9.47057L41.9922 9.4998H41.7857C40.7826 9.58751 39.7944 9.64598 38.8061 9.47057C37.2426 9.19283 36.3133 8.12575 36.2986 6.56167C36.2838 5.24608 36.2691 3.9305 36.2986 2.61492C36.3133 2.13253 36.1953 2.00098 35.6791 2.00098H7.59481C6.41479 2.00098 6.16404 2.24948 6.16404 3.44812C6.16404 12.6962 6.15913 21.954 6.14929 31.2215C6.14929 31.7478 6.26729 31.8647 6.7983 31.8647H41.9922C42.4152 31.8524 42.8386 31.8621 43.2607 31.894C43.7622 31.9524 43.8654 31.7624 43.8654 31.2946C43.8359 24.2197 43.8507 17.174 43.8507 10.1137ZM16.3269 21.0477C17.5217 22.1879 18.6722 23.3573 19.8522 24.5121C20.0882 24.746 20.2947 24.9945 20.2799 25.2576C20.2652 25.7546 20.0587 26.0323 19.6899 26.1931C19.5211 26.2743 19.33 26.2983 19.1461 26.2613C18.9622 26.2243 18.7957 26.1285 18.6722 25.9884C17.9937 25.3307 17.3299 24.6582 16.6514 23.9858L14.1144 21.4716C13.5686 20.9308 13.5539 20.4338 14.1144 19.8783L18.5247 15.5076C19.0262 15.0106 19.6162 14.9668 20.0144 15.3761C20.4127 15.7854 20.3684 16.3262 19.8669 16.8232C18.6869 17.9926 17.5217 19.1767 16.3121 20.3314C16.0024 20.6238 16.0466 20.77 16.3269 21.0477ZM27.714 16.5016L24.0412 25.5792C23.8495 26.0469 23.525 26.3393 23.0087 26.2662C22.4925 26.1931 22.286 25.9446 22.1827 25.4914C22.1553 25.2749 22.1966 25.0552 22.3007 24.8629C23.5102 21.8419 24.7296 18.821 25.9587 15.8C26.2095 15.2007 26.593 14.996 27.1093 15.113C27.6255 15.2299 27.7878 15.5807 27.8468 16.0485C27.8025 16.1947 27.773 16.3555 27.714 16.5016ZM35.9151 21.4424C34.4302 22.9334 32.9356 24.4146 31.431 25.8861C30.9443 26.3831 30.3838 26.4124 29.9855 26.0031C29.5873 25.5938 29.6463 25.0237 30.1183 24.5559C31.2835 23.3865 32.4488 22.2171 33.6288 21.0769C33.9386 20.7846 34.0123 20.6238 33.6583 20.2876C32.4341 19.1328 31.254 17.9195 30.0593 16.7355C29.9012 16.6059 29.7909 16.428 29.7455 16.2297C29.7002 16.0313 29.7223 15.8237 29.8085 15.6392C29.9708 15.2738 30.2805 15.0983 30.7378 15.0983C30.8678 15.1065 30.9949 15.1405 31.1114 15.1983C31.228 15.256 31.3317 15.3364 31.4163 15.4345L35.9446 19.9221C36.4461 20.4338 36.4314 20.9308 35.9151 21.4424Z" fill="#CBD3D7"/>
<path d="M38.2014 3.448L42.3609 7.55554C42.2872 7.6871 42.1249 7.58478 42.0069 7.58478C41.0629 7.59939 40.1336 7.59939 39.1896 7.58478C38.5701 7.58478 38.2161 7.26319 38.2014 6.64925C38.1866 5.59678 38.2014 4.54432 38.2014 3.448Z" fill="#CBD3D7"/>
<path d="M43.8359 53.3088C43.8064 53.9227 43.4377 54.2589 42.8182 54.2882H7.55056L6.90155 54.2443L6.78355 54.1858C6.32629 54.0689 6.17879 53.7181 6.16404 53.3234C6.14929 52.5048 6.16404 51.6862 6.14929 50.853C6.14929 50.6045 6.26729 50.5461 6.48855 50.5607C6.56211 50.568 6.63623 50.568 6.7098 50.5607H43.5262C43.7622 50.5461 43.8507 50.6338 43.8507 50.8677C43.8359 51.6862 43.8654 52.4902 43.8359 53.3088Z" fill="#CBD3D7"/>
<path d="M4.27607 30.9439C4.15807 31.3239 4.58582 31.9525 3.68606 31.8794C2.7863 31.8063 2.38805 31.514 2.4028 30.9293C2.41755 30.3446 2.88955 30.0522 3.70081 29.9937C4.51207 29.9353 4.11382 30.6223 4.27607 30.9439Z" fill="#ADAAA4"/>
<path d="M46.3287 30.023C46.8597 29.9792 47.2728 30.0961 47.494 30.5346C47.5797 30.6888 47.6157 30.8653 47.5973 31.0403C47.5788 31.2154 47.5068 31.3807 47.3907 31.514C47.1547 31.8064 46.1812 32.0256 45.8567 31.8648C45.8143 31.8436 45.78 31.8093 45.7587 31.7672C45.7375 31.7251 45.7305 31.6773 45.7387 31.6309C45.7387 31.1778 45.724 30.7246 45.7535 30.2715C45.783 29.8184 46.1812 30.1399 46.3287 30.023Z" fill="#ADAAA4"/>
<path d="M41.7857 9.49969C40.7827 9.5874 39.7944 9.64587 38.8062 9.47046L41.7857 9.49969Z" fill="#CBD3D7"/>
<path d="M20.28 25.2576C20.2652 25.7546 20.0587 26.0324 19.6899 26.1932C19.5211 26.2744 19.3301 26.2984 19.1461 26.2614C18.9622 26.2244 18.7957 26.1285 18.6722 25.9885C17.9937 25.3307 17.3299 24.6583 16.6514 23.9859L14.1144 21.4717C13.5686 20.9308 13.5539 20.4338 14.1144 19.8784L18.5247 15.5077C19.0262 15.0107 19.6162 14.9668 20.0145 15.3761C20.4127 15.7854 20.3685 16.3263 19.8669 16.8233C18.6869 17.9927 17.5217 19.1767 16.3122 20.3315C16.0024 20.6239 16.0467 20.77 16.3269 21.0478C17.5217 22.1879 18.6722 23.3573 19.8522 24.5121C20.0882 24.746 20.2947 24.9945 20.28 25.2576Z" fill="#5D5954"/>
<path d="M30.7378 15.0984C30.8679 15.1066 30.9949 15.1405 31.1115 15.1983C31.228 15.2561 31.3317 15.3364 31.4163 15.4346L35.9446 19.9222C36.4461 20.4338 36.4314 20.9308 35.9151 21.4424C34.4303 22.9334 32.9356 24.4147 31.4311 25.8862C30.9443 26.3832 30.3838 26.4124 29.9856 26.0031C29.5873 25.5938 29.6316 25.0237 30.1183 24.556C31.2836 23.3866 32.4488 22.2172 33.6288 21.077C33.9386 20.7846 34.0123 20.6238 33.6583 20.2876C32.4341 19.1328 31.2541 17.9196 30.0593 16.7356C29.9012 16.6059 29.7909 16.428 29.7456 16.2297C29.7002 16.0314 29.7223 15.8238 29.8086 15.6392C29.9708 15.2738 30.2806 15.0984 30.7378 15.0984Z" fill="#5D5954"/>
<path d="M27.8468 16.0485C27.8025 16.1947 27.773 16.3555 27.714 16.5017L24.0413 25.5792C23.8495 26.047 23.525 26.3393 23.0088 26.2662C22.4925 26.1931 22.286 25.9446 22.1827 25.4915C22.1554 25.2749 22.1966 25.0553 22.3007 24.8629C23.5103 21.842 24.7296 18.821 25.9588 15.8C26.2095 15.2007 26.593 14.9961 27.1093 15.113C27.6255 15.23 27.7878 15.5808 27.8468 16.0485Z" fill="#5D5954"/>
<path d="M32.7438 36.8494L34.1156 36.9371C35.7824 37.054 35.7381 37.054 35.4578 38.6619C35.3546 39.2174 35.2071 39.3782 34.6761 39.232C34.1451 39.0859 33.2601 39.1005 32.5521 39.1151C32.2866 39.1151 32.0506 39.1882 32.0653 39.5244C32.0801 39.8606 32.3013 39.8898 32.5668 39.9191C33.0967 39.9624 33.6236 40.0356 34.1451 40.1383C35.5464 40.4599 36.1806 41.2785 36.1511 42.6964C36.1216 44.3482 35.4726 45.1668 34.0123 45.4591C32.5521 45.7515 31.1803 45.5322 29.779 45.4007C29.2775 45.3568 29.0858 45.1522 29.1595 44.5821C29.3513 43.1788 29.307 43.1788 30.6198 43.2811C31.3271 43.3226 32.036 43.3275 32.7438 43.2957C32.9798 43.2957 33.2453 43.3542 33.2453 42.9595C33.2453 42.5648 33.0683 42.5502 32.7881 42.521C32.1243 42.4625 31.4458 42.4771 30.7968 42.2725C29.5135 41.834 29.0563 40.9861 29.2038 39.2174C29.307 37.858 29.956 37.1271 31.2541 36.9663C31.7483 36.902 32.2455 36.8629 32.7438 36.8494Z" fill="#5D5954"/>
<path d="M24.646 36.8494L25.9883 36.9371C27.6845 37.054 27.6845 37.0832 27.36 38.7204C27.2568 39.232 27.1093 39.3782 26.6225 39.232C26.1358 39.0859 25.3688 39.0859 24.7198 39.1005C24.4247 39.1151 24.0265 39.0274 23.9822 39.4805C23.938 39.9337 24.3658 39.8898 24.6608 39.9191C24.9558 39.9483 25.295 39.9775 25.6048 40.036C27.714 40.4891 28.3778 41.4978 27.95 43.5881C27.7435 44.6405 27.1388 45.2252 26.062 45.4445C24.5723 45.7515 23.112 45.5615 21.637 45.386C21.165 45.3422 21.0175 45.1229 21.0765 44.6113C21.2387 43.2226 21.2387 43.208 22.581 43.2957C23.289 43.3396 23.997 43.3103 24.705 43.2957C24.9115 43.2957 25.1475 43.325 25.1623 43.0034C25.177 42.6818 25.059 42.5648 24.7493 42.5356C24.0855 42.4479 23.407 42.4918 22.758 42.2725C21.4452 41.834 20.9732 41.0154 21.106 39.2613C21.2092 37.8872 21.8582 37.1417 23.1267 36.9663C23.6307 36.9007 24.1378 36.8617 24.646 36.8494Z" fill="#5D5954"/>
<path d="M16.7399 41.3661C16.7399 41.6146 16.7252 41.8631 16.7399 42.1116C16.7399 43.2371 17.4627 43.7195 18.5837 43.3979C18.982 43.281 19.5572 42.8132 19.7785 43.2517C19.9997 43.6903 19.9997 44.4796 19.9997 45.1082C19.9997 45.3859 19.631 45.3859 19.395 45.4444C18.321 45.6931 17.202 45.6781 16.1352 45.4005C14.7192 45.0497 14.1292 43.968 13.9522 42.6232C13.8934 42.2754 13.8638 41.9234 13.8637 41.5707C13.8047 37.6532 15.3092 36.3522 19.218 36.9808C19.5425 37.0247 20.221 36.9662 19.9555 37.5509C19.69 38.1356 20.339 39.1881 18.982 39.115C16.3269 38.9542 16.7694 39.0857 16.7399 41.3661Z" fill="#5D5954"/>
</g>
<defs>
<clipPath id="clip0_2008_88">
<rect width="49" height="56" fill="white" transform="translate(0.5 0.144531)"/>
</clipPath>
</defs>
</svg>
