<svg xmlns="http://www.w3.org/2000/svg" viewBox="0 0 173.7 297.1"><defs><style>.cls-1{fill:#272d3e;}</style></defs><g id="Camada_2" data-name="Camada 2"><g id="Camada_1-2" data-name="Camada 1"><path class="cls-1" d="M166.3,165.9a26,26,0,0,1-2.5,3.1L43.8,288.7C33.1,299.4,18.1,299.9,8,290.2s-11-24.6-1.3-34.4c30-30.4,60.4-60.5,90.7-90.6.2-.3.6-.4,1-.6,3.8-4.1,7.3-8.6,11.5-12.1s3-5.1-.1-8.1C76.2,111.1,42.7,77.5,9.1,44.2,2.2,37.3-1.4,29.3.8,19.6S8.8,3.9,18.2,1.1s18-.3,24.9,6.7C58.2,23,73.1,38.4,88.2,53.6s32.8,33.6,49.9,49.7c10.3,9.6,19.5,20.3,29.9,29.7C176.4,140.6,175.3,156.7,166.3,165.9Z"/></g></g></svg>