<svg xmlns="http://www.w3.org/2000/svg" viewBox="0 0 173.7 297.1"><defs><style>.cls-1{fill:#272d3e;}</style></defs><g id="Camada_2" data-name="Camada 2"><g id="Camada_1-2" data-name="Camada 1"><path class="cls-1" d="M7.4,165.9A26,26,0,0,0,9.9,169l120,119.7c10.8,10.7,25.8,11.2,35.8,1.5s11-24.6,1.3-34.4c-30-30.4-60.4-60.5-90.6-90.6a5.3,5.3,0,0,0-1-.6c-3.9-4.1-7.4-8.6-11.6-12.1s-2.9-5.1.1-8.1C97.5,111.1,131,77.5,164.6,44.2c6.9-6.9,10.5-14.9,8.3-24.6s-8-15.7-17.3-18.5-18.1-.3-25,6.7c-15.1,15.2-30,30.6-45.1,45.8S52.7,87.2,35.6,103.3C25.3,112.9,16.2,123.6,5.7,133-2.7,140.6-1.6,156.7,7.4,165.9Z"/></g></g></svg>