<svg width="32" height="32" viewBox="0 0 32 32" fill="none" xmlns="http://www.w3.org/2000/svg">
<g clip-path="url(#clip0_2005_14)">
<path d="M14.9422 0H17.0079L17.684 0.0813453C20.2693 0.37544 22.6668 1.19515 24.8264 2.65937C28.7137 5.30622 31.0549 8.95424 31.8123 13.6034C31.8874 14.0602 31.9375 14.5295 32.0001 14.9863V16.9887C31.95 17.3891 31.9125 17.7896 31.8499 18.1901C31.299 21.9194 29.6903 25.1232 26.8984 27.6699C22.7544 31.4431 17.8718 32.8009 12.4195 31.5432C3.47429 29.4908 -1.89034 20.5553 0.619834 11.7575C2.42265 5.41885 6.75442 1.60813 13.2208 0.250293C13.7904 0.131404 14.3726 0.0813453 14.9422 0ZM18.6042 22.1822C19.3428 22.9582 19.4618 23.9593 19.443 25.0106C19.4305 26.1682 19.443 27.3195 19.443 28.4771C19.443 28.9527 19.6496 29.228 20.0627 29.2718C20.2479 29.2816 20.4331 29.2539 20.6073 29.1905C27.4555 26.8189 31.3616 19.5041 29.5525 12.4584C27.6934 5.19984 20.3381 0.682049 13.0017 2.30896C5.85301 3.89206 0.976642 10.7501 2.21608 18.2589C2.89839 22.3637 5.05802 25.5487 8.55098 27.8201C9.44377 28.3957 10.4047 28.8582 11.4117 29.1967C12.1191 29.4345 12.5698 29.1216 12.5698 28.3833V26.1869C12.1879 26.237 11.8624 26.2871 11.5306 26.3183C9.90935 26.4497 8.31936 25.8115 7.70591 24.1158C7.41796 23.3273 6.91717 22.6766 6.17852 22.2323C6.02417 22.1291 5.88689 22.0024 5.77163 21.8569C5.64644 21.7129 5.70278 21.5628 5.87805 21.519C6.0854 21.46 6.30207 21.4408 6.51655 21.4627C7.39292 21.5878 7.99386 22.1197 8.4696 22.833C8.64878 23.1129 8.85194 23.3767 9.0768 23.6214C10.0596 24.6101 11.4367 24.4912 12.4759 24.0532C12.551 24.0219 12.5948 23.8968 12.6324 23.8092C12.7388 23.4963 12.8139 23.1646 12.9516 22.8706C13.0893 22.5765 13.2646 22.37 13.4023 22.1447C12.745 22.007 12.0752 21.8944 11.4242 21.7129C9.57758 21.1998 8.17539 20.1298 7.54315 18.2589C7.3178 17.6081 7.1926 16.9073 7.11749 16.2253C6.92343 14.5546 7.21138 12.9902 8.33188 11.6574C8.36857 11.6065 8.3942 11.5484 8.40714 11.487C8.42007 11.4256 8.42003 11.3621 8.407 11.3007C8.13783 10.3621 8.16913 9.4298 8.42578 8.50371C8.64487 7.71529 8.71373 7.67775 9.53376 7.85295C10.5228 8.0657 11.3929 8.55377 12.2505 9.07313C12.3853 9.15567 12.5446 9.18885 12.7012 9.16699C14.8722 8.58189 17.1594 8.58189 19.3303 9.16699C19.4786 9.18876 19.63 9.16245 19.7622 9.0919C20.4007 8.77278 21.0142 8.38483 21.6715 8.11576C22.1222 7.92804 22.6292 7.87798 23.1175 7.80289C23.2114 7.79038 23.3804 7.89675 23.4117 7.99061C23.8061 9.0481 23.9375 10.1306 23.612 11.2257C23.5494 11.4384 23.5932 11.5698 23.7184 11.7262C24.2781 12.3908 24.6575 13.1881 24.8201 14.0415C25.0142 15.0113 24.9641 15.9875 24.8076 16.9574C24.4508 19.1975 23.2802 20.7994 21.0956 21.5377C20.2881 21.8131 19.4367 21.9695 18.6042 22.1822Z" fill="#999999"/>
</g>
<defs>
<clipPath id="clip0_2005_14">
<rect width="32" height="32" fill="white"/>
</clipPath>
</defs>
</svg>
