<svg width="50" height="57" viewBox="0 0 50 57" fill="none" xmlns="http://www.w3.org/2000/svg">
<g clip-path="url(#clip0_2007_68)">
<path d="M37.5819 0.144531L38.2309 0.714617C40.5614 3.0242 42.8772 5.33378 45.2225 7.62874C45.3999 7.79826 45.539 8.0032 45.6306 8.23C45.7221 8.4568 45.764 8.70028 45.7535 8.94432C45.7387 15.0399 45.7535 21.15 45.7535 27.2602C45.7535 28.1372 45.7535 28.1372 46.6237 28.1518C47.298 28.1378 47.9552 28.3627 48.4771 28.7861C48.9989 29.2095 49.3512 29.8036 49.4705 30.4614C49.5024 30.6792 49.5123 30.8995 49.5 31.1192V47.5786C49.5 49.3912 48.3052 50.5606 46.4615 50.5606C45.7535 50.5606 45.7682 50.5606 45.7387 51.2769C45.7092 51.9931 45.8567 53.0748 45.6502 53.9519C45.5252 54.581 45.1798 55.1461 44.6751 55.5473C44.1703 55.9485 43.5388 56.1601 42.8919 56.1445H7.13757C6.76017 56.1524 6.38502 56.085 6.03441 55.9464C5.6838 55.8077 5.36488 55.6007 5.09658 55.3375C4.82829 55.0744 4.6161 54.7605 4.4726 54.4145C4.32911 54.0685 4.25725 53.6974 4.26129 53.3233C4.24162 52.5242 4.24162 51.7203 4.26129 50.9114C4.27604 50.6191 4.17279 50.546 3.89253 50.5606C3.45224 50.592 3.00969 50.5575 2.57977 50.4583C1.9919 50.2979 1.47195 49.9538 1.09724 49.4771C0.722529 49.0004 0.513068 48.4166 0.5 47.8125L0.5 30.9146C0.499979 30.5493 0.573053 30.1876 0.714993 29.8505C0.856933 29.5134 1.06492 29.2075 1.32692 28.9506C1.58893 28.6937 1.89974 28.4908 2.24138 28.3537C2.58302 28.2166 2.94871 28.148 3.31728 28.1518C4.26129 28.1372 4.26129 28.1372 4.26129 27.2163C4.26129 19.3813 4.29079 11.5463 4.23179 3.71122C4.23179 1.98635 4.77754 0.75847 6.45906 0.144531H37.5819ZM41.6677 54.2735H42.8182C43.4377 54.2442 43.8064 53.908 43.8359 53.2941C43.8654 52.6802 43.8359 51.6715 43.8507 50.853C43.8507 50.6191 43.7622 50.5314 43.5262 50.546H6.70981C6.63625 50.5533 6.56213 50.5533 6.48856 50.546C6.26731 50.5314 6.14931 50.5898 6.14931 50.8383C6.16406 51.6715 6.14931 52.4901 6.16406 53.3087C6.17881 53.7034 6.32631 54.0542 6.78356 54.1712L6.90157 54.2296L7.55057 54.2735H41.6677ZM3.25828 33.7504C3.14953 33.7485 3.04107 33.7388 2.93377 33.7211C2.37327 33.4726 2.37327 33.7942 2.37327 34.2035C2.38802 35.9138 2.38802 37.624 2.38802 39.3343V47.5055C2.38802 48.0318 2.49127 48.4849 3.11078 48.6165C3.33203 48.7773 3.56803 48.7042 3.80403 48.7042H46.2255C47.317 48.7042 47.612 48.4118 47.612 47.3447V33.8381C47.612 33.6627 47.553 33.6042 47.376 33.6481C46.6385 33.8381 45.8862 33.7211 45.134 33.7211H3.86303L3.25828 33.7504ZM38.8061 9.47055C37.2426 9.19282 36.3134 8.12574 36.2986 6.54704C36.2691 5.24607 36.2691 3.93049 36.2986 2.6149C36.3134 2.13252 36.1954 2.00097 35.6791 2.00097C26.3275 2.02046 16.9661 2.02046 7.59482 2.00097C6.41481 2.00097 6.16406 2.26408 6.16406 3.46272C6.16406 12.7108 6.15914 21.9686 6.14931 31.2361C6.14931 31.7624 6.26731 31.8793 6.79831 31.8793H41.9922C42.4152 31.867 42.8387 31.8767 43.2607 31.9086C43.7622 31.967 43.8654 31.777 43.8654 31.3092C43.8359 24.2489 43.8507 17.2033 43.8507 10.143C43.8433 10.0359 43.8433 9.92845 43.8507 9.82138C43.8654 9.5875 43.7622 9.48517 43.5262 9.49979L41.9922 9.52902H41.7857L38.8061 9.47055ZM38.2014 3.44811C38.2014 4.54443 38.1866 5.59689 38.2014 6.64936C38.2161 7.2633 38.5701 7.58489 39.1896 7.58489C40.1337 7.5995 41.0629 7.5995 42.0069 7.58489C42.1249 7.58489 42.2872 7.68721 42.3609 7.55565L38.2014 3.44811ZM4.27604 30.9438C4.11379 30.6222 4.64479 29.9352 3.70078 29.9937C2.75677 30.0521 2.41752 30.3445 2.40277 30.9292C2.38802 31.5139 2.86002 31.8209 3.68603 31.8793C4.51204 31.9378 4.15804 31.3239 4.27604 30.9438ZM46.3287 30.0229C46.1812 30.1398 45.7682 29.7744 45.7535 30.2714C45.7387 30.7684 45.7387 31.1777 45.7387 31.6308C45.7304 31.6772 45.7374 31.725 45.7587 31.7671C45.7799 31.8092 45.8143 31.8434 45.8567 31.8647C46.1812 32.0255 47.1547 31.8062 47.3907 31.5139C47.5067 31.3806 47.5788 31.2153 47.5973 31.0402C47.6157 30.8652 47.5797 30.6887 47.494 30.5345C47.2727 30.096 46.8597 29.979 46.3287 30.0229Z" fill="#5D5954"/>
<path d="M3.1108 48.6165C2.49129 48.4849 2.38804 48.0317 2.38804 47.5055V39.3343C2.38804 37.624 2.38804 35.9138 2.37329 34.2035C2.37329 33.7942 2.37329 33.4726 2.9338 33.7211C3.04109 33.7388 3.14955 33.7485 3.2583 33.7504C3.47955 33.8965 3.71555 33.8234 3.95156 33.8234H45.1045C45.606 33.8234 45.783 33.9258 45.7682 34.452C45.724 35.8699 45.7535 37.2878 45.7535 38.7203V47.564C45.7535 48.4703 45.606 48.6018 44.7062 48.6018H3.1108V48.6165ZM30.6493 40.0505L28.7466 36.25C28.5253 35.8114 28.1861 35.5191 27.655 35.6214C27.124 35.7237 26.888 36.1038 26.888 36.6739C26.8733 39.6997 26.8733 42.7109 26.888 45.7368C26.888 46.3653 27.2715 46.8039 27.8026 46.8185C28.3336 46.8331 28.7613 46.38 28.7613 45.7222V41.0738C28.7613 40.9568 28.7023 40.796 28.8498 40.6645C29.1596 41.293 29.4546 41.8924 29.7643 42.4917C30.0741 43.091 30.8706 43.2226 31.3426 42.7402C31.478 42.5694 31.5919 42.3828 31.6818 42.1847L32.4341 40.7376C32.5068 41.5736 32.5363 42.4128 32.5226 43.2518C32.5226 44.085 32.5078 44.9182 32.5226 45.766C32.5373 46.3946 32.9356 46.8185 33.4814 46.8185C34.0271 46.8185 34.3959 46.3946 34.3959 45.7514C34.4057 42.7304 34.4057 39.7095 34.3959 36.6885C34.4205 36.4878 34.3846 36.2843 34.2926 36.1038C34.2153 35.9591 34.1011 35.8371 33.9613 35.7499C33.8216 35.6627 33.6611 35.6133 33.4961 35.6068C33.3085 35.6056 33.1246 35.6589 32.9673 35.7603C32.81 35.8616 32.6861 36.0065 32.6111 36.1769C31.9768 37.434 31.3426 38.7057 30.6493 40.0505ZM8.99611 41.2053V45.6929C8.99611 46.3653 9.36486 46.8039 9.91062 46.8185C10.4564 46.8331 10.8694 46.3653 10.8694 45.6637C10.8694 44.6405 10.8841 43.6319 10.8694 42.6086C10.8694 42.2724 10.9136 42.1116 11.3119 42.1409C11.9609 42.1701 12.6246 42.1701 13.2884 42.1409C13.6277 42.1262 13.7309 42.2286 13.7162 42.5648C13.7014 43.6172 13.7162 44.6843 13.7162 45.7368C13.7162 46.073 13.7752 46.3946 14.0702 46.6138C14.2051 46.7222 14.3689 46.7895 14.5416 46.8077C14.7144 46.8259 14.8888 46.7941 15.0437 46.7162C15.4862 46.4969 15.6042 46.1168 15.6042 45.6637V36.7616C15.5894 36.0453 15.2059 35.5922 14.6307 35.6068C14.0554 35.6214 13.7162 36.0307 13.7162 36.747C13.7063 37.7897 13.7063 38.8275 13.7162 39.8605C13.7309 40.1821 13.6572 40.3137 13.3032 40.299C12.6246 40.2698 11.9314 40.2698 11.2529 40.299C10.9284 40.299 10.8694 40.1821 10.8694 39.8897C10.8841 38.8373 10.8841 37.7702 10.8694 36.7177C10.8694 36.0599 10.4859 35.6068 9.92537 35.6068C9.36486 35.6068 8.99611 36.0599 8.99611 36.7177V41.2053ZM21.2535 35.5922H20.0882C19.5425 35.5922 18.9967 35.5776 18.4362 35.6068C18.3078 35.6045 18.1803 35.6286 18.0618 35.6776C17.9433 35.7266 17.8363 35.7994 17.7476 35.8915C17.6589 35.9835 17.5904 36.0927 17.5465 36.2123C17.5025 36.3319 17.484 36.4592 17.4922 36.5862C17.5069 37.127 17.8609 37.4486 18.4657 37.4632C18.8883 37.4852 19.3117 37.4852 19.7342 37.4632C20.162 37.4194 20.2947 37.5509 20.2947 37.9895C20.2652 40.4744 20.28 42.9448 20.28 45.4298C20.28 46.3507 20.6045 46.8185 21.224 46.8185C21.8435 46.8185 22.168 46.3653 22.168 45.4298C22.168 42.9594 22.168 40.4745 22.1532 38.0041C22.1532 37.5655 22.2712 37.4194 22.7137 37.4632C23.1563 37.5071 23.6283 37.4632 24.0855 37.4632C24.2519 37.4718 24.417 37.4303 24.5591 37.3442C24.7013 37.2581 24.8138 37.1315 24.882 36.9808C25.236 36.3231 24.7788 35.6214 23.9528 35.6068C23.1268 35.5922 22.1532 35.5922 21.2535 35.5922ZM36.2986 41.2053C36.2986 42.6817 36.2839 44.1581 36.2986 45.6345C36.2986 46.3653 36.5641 46.7746 37.1836 46.8039C38.1719 46.8477 39.1749 46.8477 40.1632 46.8039C40.2828 46.7965 40.3997 46.7655 40.507 46.7128C40.6143 46.6601 40.71 46.5866 40.7883 46.4967C40.8666 46.4069 40.926 46.3024 40.9631 46.1895C41.0001 46.0765 41.014 45.9574 41.0039 45.8391C40.9892 45.3275 40.6352 44.9913 40.0599 44.9621C39.4847 44.9328 39.1159 44.9474 38.6292 44.9621C38.1424 44.9767 38.1424 44.889 38.1867 44.5381C38.194 44.4311 38.194 44.3236 38.1867 44.2166V36.6593C38.1572 36.0161 37.7884 35.6068 37.2426 35.6068C36.6969 35.6068 36.2986 36.0161 36.2986 36.6739C36.2839 38.1795 36.2986 39.6997 36.2986 41.2053Z" fill="#ADAAA4"/>
<path d="M43.8507 10.1137C43.8433 10.0067 43.8433 9.89923 43.8507 9.79215C43.8654 9.55827 43.7622 9.45595 43.5262 9.47057L41.9922 9.4998H41.7857C40.7826 9.58751 39.7944 9.64598 38.8061 9.47057C37.2426 9.19283 36.3133 8.12575 36.2986 6.56167C36.2838 5.24608 36.2691 3.9305 36.2986 2.61492C36.3133 2.13253 36.1953 2.00098 35.6791 2.00098H7.59481C6.41479 2.00098 6.16404 2.24948 6.16404 3.44812C6.16404 12.6962 6.15913 21.954 6.14929 31.2215C6.14929 31.7478 6.26729 31.8647 6.7983 31.8647H41.9922C42.4152 31.8524 42.8386 31.8621 43.2607 31.894C43.7622 31.9524 43.8654 31.7624 43.8654 31.2946C43.8359 24.2197 43.8507 17.174 43.8507 10.1137ZM16.3269 21.0477C17.5217 22.1879 18.6722 23.3573 19.8522 24.5121C20.0882 24.746 20.2947 24.9945 20.2799 25.2576C20.2652 25.7546 20.0587 26.0323 19.6899 26.1931C19.5211 26.2743 19.33 26.2983 19.1461 26.2613C18.9622 26.2243 18.7957 26.1285 18.6722 25.9884C17.9937 25.3307 17.3299 24.6582 16.6514 23.9858L14.1144 21.4716C13.5686 20.9308 13.5539 20.4338 14.1144 19.8783L18.5247 15.5076C19.0262 15.0106 19.6162 14.9668 20.0144 15.3761C20.4127 15.7854 20.3684 16.3262 19.8669 16.8232C18.6869 17.9926 17.5217 19.1767 16.3121 20.3314C16.0024 20.6238 16.0466 20.77 16.3269 21.0477ZM27.714 16.5016L24.0412 25.5792C23.8495 26.0469 23.525 26.3393 23.0087 26.2662C22.4925 26.1931 22.286 25.9446 22.1827 25.4914C22.1553 25.2749 22.1966 25.0552 22.3007 24.8629C23.5102 21.8419 24.7296 18.821 25.9587 15.8C26.2095 15.2007 26.593 14.996 27.1093 15.113C27.6255 15.2299 27.7878 15.5807 27.8468 16.0485C27.8025 16.1947 27.773 16.3555 27.714 16.5016ZM35.9151 21.4424C34.4302 22.9334 32.9356 24.4146 31.431 25.8861C30.9443 26.3831 30.3838 26.4124 29.9855 26.0031C29.5873 25.5938 29.6463 25.0237 30.1183 24.5559C31.2835 23.3865 32.4488 22.2171 33.6288 21.0769C33.9386 20.7846 34.0123 20.6238 33.6583 20.2876C32.4341 19.1328 31.254 17.9195 30.0593 16.7355C29.9012 16.6059 29.7909 16.428 29.7455 16.2297C29.7002 16.0313 29.7223 15.8237 29.8085 15.6392C29.9708 15.2738 30.2805 15.0983 30.7378 15.0983C30.8678 15.1065 30.9949 15.1405 31.1114 15.1983C31.228 15.256 31.3317 15.3364 31.4163 15.4345L35.9446 19.9221C36.4461 20.4338 36.4314 20.9308 35.9151 21.4424Z" fill="#CBD3D7"/>
<path d="M3.11078 48.6164H44.7062C45.606 48.6164 45.7535 48.4848 45.7535 47.5786V38.7203C45.7535 37.2878 45.724 35.8699 45.7682 34.452C45.783 33.9257 45.606 33.8234 45.1045 33.8234H3.95154C3.71553 33.8234 3.47953 33.8965 3.25828 33.7503L3.86304 33.7211H45.134C45.8862 33.7211 46.6385 33.838 47.376 33.648C47.553 33.6041 47.612 33.6626 47.612 33.838V47.3301C47.612 48.3971 47.317 48.6895 46.2255 48.6895H3.80404C3.56803 48.7041 3.33203 48.7772 3.11078 48.6164Z" fill="#ADAAA4"/>
<path d="M38.2014 3.448L42.3609 7.55554C42.2872 7.6871 42.1249 7.58478 42.0069 7.58478C41.0629 7.59939 40.1336 7.59939 39.1896 7.58478C38.5701 7.58478 38.2161 7.26319 38.2014 6.64925C38.1866 5.59678 38.2014 4.54432 38.2014 3.448Z" fill="#CBD3D7"/>
<path d="M43.8359 53.3088C43.8064 53.9227 43.4377 54.2589 42.8182 54.2882H7.55056L6.90155 54.2443L6.78355 54.1858C6.32629 54.0689 6.17879 53.7181 6.16404 53.3234C6.14929 52.5048 6.16404 51.6862 6.14929 50.853C6.14929 50.6045 6.26729 50.5461 6.48855 50.5607C6.56211 50.568 6.63623 50.568 6.7098 50.5607H43.5262C43.7622 50.5461 43.8507 50.6338 43.8507 50.8677C43.8359 51.6862 43.8654 52.4902 43.8359 53.3088Z" fill="#CBD3D7"/>
<path d="M4.27607 30.9439C4.15807 31.3239 4.58582 31.9525 3.68606 31.8794C2.7863 31.8063 2.38805 31.514 2.4028 30.9293C2.41755 30.3446 2.88955 30.0522 3.70081 29.9937C4.51207 29.9353 4.11382 30.6223 4.27607 30.9439Z" fill="#ADAAA4"/>
<path d="M46.3287 30.023C46.8597 29.9792 47.2728 30.0961 47.494 30.5346C47.5797 30.6888 47.6157 30.8653 47.5973 31.0403C47.5788 31.2154 47.5068 31.3807 47.3907 31.514C47.1547 31.8064 46.1812 32.0256 45.8567 31.8648C45.8143 31.8436 45.78 31.8093 45.7587 31.7672C45.7375 31.7251 45.7305 31.6773 45.7387 31.6309C45.7387 31.1778 45.724 30.7246 45.7535 30.2715C45.783 29.8184 46.1812 30.1399 46.3287 30.023Z" fill="#ADAAA4"/>
<path d="M41.7857 9.49969C40.7827 9.5874 39.7944 9.64587 38.8062 9.47046L41.7857 9.49969Z" fill="#CBD3D7"/>
<path d="M20.28 25.2576C20.2652 25.7546 20.0587 26.0324 19.6899 26.1932C19.5211 26.2744 19.3301 26.2984 19.1461 26.2614C18.9622 26.2244 18.7957 26.1285 18.6722 25.9885C17.9937 25.3307 17.3299 24.6583 16.6514 23.9859L14.1144 21.4717C13.5686 20.9308 13.5539 20.4338 14.1144 19.8784L18.5247 15.5077C19.0262 15.0107 19.6162 14.9668 20.0145 15.3761C20.4127 15.7854 20.3685 16.3263 19.8669 16.8233C18.6869 17.9927 17.5217 19.1767 16.3122 20.3315C16.0024 20.6239 16.0467 20.77 16.3269 21.0478C17.5217 22.1879 18.6722 23.3573 19.8522 24.5121C20.0882 24.746 20.2947 24.9945 20.28 25.2576Z" fill="#5D5954"/>
<path d="M30.7378 15.0984C30.8679 15.1066 30.9949 15.1405 31.1115 15.1983C31.228 15.2561 31.3317 15.3364 31.4163 15.4346L35.9446 19.9222C36.4461 20.4338 36.4314 20.9308 35.9151 21.4424C34.4303 22.9334 32.9356 24.4147 31.4311 25.8862C30.9443 26.3832 30.3838 26.4124 29.9856 26.0031C29.5873 25.5938 29.6316 25.0237 30.1183 24.556C31.2836 23.3866 32.4488 22.2172 33.6288 21.077C33.9386 20.7846 34.0123 20.6238 33.6583 20.2876C32.4341 19.1328 31.2541 17.9196 30.0593 16.7356C29.9012 16.6059 29.7909 16.428 29.7456 16.2297C29.7002 16.0314 29.7223 15.8238 29.8086 15.6392C29.9708 15.2738 30.2806 15.0984 30.7378 15.0984Z" fill="#5D5954"/>
<path d="M27.8468 16.0485C27.8025 16.1947 27.773 16.3555 27.714 16.5017L24.0413 25.5792C23.8495 26.047 23.525 26.3393 23.0088 26.2662C22.4925 26.1931 22.286 25.9446 22.1827 25.4915C22.1554 25.2749 22.1966 25.0553 22.3007 24.8629C23.5103 21.842 24.7296 18.821 25.9588 15.8C26.2095 15.2007 26.593 14.9961 27.1093 15.113C27.6255 15.23 27.7878 15.5808 27.8468 16.0485Z" fill="#5D5954"/>
<path d="M30.6493 40.0505C31.3426 38.7057 31.9768 37.434 32.6111 36.1769C32.6861 36.0064 32.81 35.8616 32.9673 35.7602C33.1246 35.6589 33.3085 35.6055 33.4961 35.6068C33.6611 35.6133 33.8215 35.6627 33.9613 35.7499C34.1011 35.8371 34.2153 35.9591 34.2926 36.1038C34.3846 36.2843 34.4205 36.4877 34.3958 36.6885C34.4057 39.6997 34.4057 42.7207 34.3958 45.7514C34.3958 46.3946 34.0123 46.8185 33.4813 46.8185C32.9503 46.8185 32.5373 46.3946 32.5226 45.766C32.5078 44.9182 32.5226 44.085 32.5226 43.2518C32.5363 42.4127 32.5067 41.5736 32.4341 40.7375L31.6818 42.1847C31.5919 42.3828 31.478 42.5693 31.3426 42.7402C30.8706 43.2225 30.1035 43.1056 29.7643 42.4917C29.425 41.8777 29.1595 41.293 28.8498 40.6645C28.7023 40.796 28.7613 40.9568 28.7613 41.0737V45.7221C28.7613 46.3799 28.363 46.8331 27.8025 46.8185C27.242 46.8038 26.888 46.3653 26.888 45.7368C26.8733 42.7109 26.8733 39.6997 26.888 36.6739C26.888 36.1038 27.1683 35.7091 27.655 35.6214C28.1418 35.5337 28.5253 35.8114 28.7465 36.2499L30.6493 40.0505Z" fill="#5D5954"/>
<path d="M8.99609 41.2053V36.7177C8.99609 36.0599 9.3796 35.6068 9.92535 35.6068C10.4711 35.6068 10.8694 36.0599 10.8694 36.7177C10.8841 37.7702 10.8841 38.8373 10.8694 39.8897C10.8694 40.1821 10.9284 40.299 11.2529 40.299C11.9314 40.2698 12.6246 40.2698 13.3031 40.299C13.6571 40.3137 13.7309 40.1821 13.7161 39.8605C13.7063 38.8275 13.7063 37.7897 13.7161 36.747C13.7161 36.0307 14.0701 35.6214 14.6307 35.6068C15.1912 35.5922 15.5894 36.0453 15.6042 36.7616V45.6637C15.6042 46.1168 15.4862 46.4969 15.0437 46.7162C14.8887 46.7941 14.7144 46.8258 14.5416 46.8077C14.3689 46.7895 14.2051 46.7222 14.0701 46.6138C13.7751 46.3946 13.7161 46.073 13.7161 45.7368C13.7161 44.6843 13.7014 43.6172 13.7161 42.5648C13.7309 42.2286 13.6276 42.1262 13.2884 42.1409C12.6246 42.1701 11.9609 42.1701 11.3119 42.1409C10.9136 42.1116 10.8694 42.2724 10.8694 42.6086C10.8841 43.6318 10.8694 44.6405 10.8694 45.6637C10.8694 46.3653 10.4859 46.8331 9.9106 46.8185C9.33535 46.8039 8.99609 46.3653 8.99609 45.6929V41.2053Z" fill="#5D5954"/>
<path d="M21.2535 35.5923C22.1532 35.5923 23.053 35.5777 23.9527 35.6069C24.8525 35.6361 25.236 36.3232 24.882 36.9809C24.8138 37.1316 24.7012 37.2582 24.5591 37.3443C24.417 37.4304 24.2519 37.4719 24.0855 37.4633C23.6282 37.4633 23.171 37.4926 22.7137 37.4633C22.2565 37.4341 22.1532 37.5657 22.1532 38.0042C22.168 40.4746 22.168 42.9595 22.168 45.4299C22.168 46.3654 21.8582 46.8332 21.224 46.8186C20.5897 46.804 20.28 46.3508 20.28 45.4299C20.28 42.9449 20.2652 40.4746 20.2947 37.9896C20.2947 37.551 20.162 37.4195 19.7342 37.4633C19.3117 37.4853 18.8882 37.4853 18.4657 37.4633C17.8609 37.4487 17.5069 37.1271 17.4922 36.5863C17.484 36.4593 17.5025 36.332 17.5464 36.2124C17.5904 36.0928 17.6589 35.9836 17.7476 35.8916C17.8363 35.7995 17.9433 35.7267 18.0618 35.6777C18.1803 35.6287 18.3078 35.6046 18.4362 35.6069C18.9967 35.5777 19.5425 35.5923 20.0882 35.5923H21.2535Z" fill="#5D5954"/>
<path d="M36.2986 41.2055C36.2986 39.6999 36.2839 38.1796 36.2986 36.674C36.2986 36.0162 36.6969 35.6069 37.2426 35.6069C37.7884 35.6069 38.1571 36.0162 38.1866 36.6594V44.2167C38.194 44.3238 38.194 44.4312 38.1866 44.5383C38.1424 44.8891 38.3046 44.9768 38.6291 44.9622C38.9536 44.9476 39.5879 44.9476 40.0599 44.9622C40.5319 44.9768 40.9892 45.3276 41.0039 45.8392C41.014 45.9576 41.0001 46.0767 40.963 46.1896C40.926 46.3025 40.8666 46.407 40.7883 46.4969C40.71 46.5867 40.6143 46.6602 40.507 46.7129C40.3996 46.7657 40.2827 46.7966 40.1631 46.804C39.1749 46.8479 38.1719 46.8479 37.1836 46.804C36.5641 46.7748 36.2986 46.3655 36.2986 45.6346C36.2839 44.1582 36.2986 42.6818 36.2986 41.2055Z" fill="#5D5954"/>
</g>
<defs>
<clipPath id="clip0_2007_68">
<rect width="49" height="56" fill="white" transform="translate(0.5 0.144531)"/>
</clipPath>
</defs>
</svg>
