<svg width="63" height="60" viewBox="0 0 63 60" fill="none" xmlns="http://www.w3.org/2000/svg">
<g clip-path="url(#clip0_62_97)">
<path d="M51.2917 60H11.5083C5.47667 60 0.600006 55.1282 0.600006 49.1026V10.8974C0.600006 4.8718 5.47667 0 11.5083 0H51.2917C57.3233 0 62.2 4.8718 62.2 10.8974V49.1026C62.2 55.1282 57.3233 60 51.2917 60Z" fill="#FE9900"/>
<path d="M50.3164 57.436H12.4837C7.35035 57.436 3.16669 53.2565 3.16669 48.1283V11.8719C3.16669 6.7437 7.35035 2.56421 12.4837 2.56421H50.2907C55.4497 2.56421 59.6077 6.7437 59.6077 11.8719V48.1027C59.6334 53.2565 55.4497 57.436 50.3164 57.436Z" fill="#330102"/>
<path d="M40.748 43.1611V23.5723C40.748 23.367 40.8712 23.2849 41.0765 23.2849H45.4296C45.676 23.2849 45.7581 23.3259 45.7581 23.5723V43.2022C45.7581 43.4486 45.676 43.5307 45.3885 43.5307H41.1586C40.8712 43.5307 40.748 43.4075 40.748 43.1611ZM43.253 20.5334C41.5693 20.5334 40.4605 19.3835 40.4605 17.6998C40.4605 16.0161 41.6514 14.8662 43.2941 14.8662C45.06 14.8662 46.0866 16.0571 46.0866 17.6998C46.0866 19.3835 44.9778 20.5334 43.253 20.5334Z" fill="#FE9900"/>
<path d="M31.7419 36.4263H21.9269L19.6683 43.2023C19.5861 43.4487 19.4629 43.5308 19.2165 43.5308H15.1099C14.8635 43.5308 14.7813 43.4076 14.8224 43.1202L23.2821 19.0551C23.4464 18.6444 23.5696 18.2338 23.6517 16.8375C23.6517 16.6732 23.7339 16.55 23.8981 16.55H29.6064C29.8117 16.55 29.8528 16.5911 29.8939 16.7964L39.3803 43.1612C39.4213 43.4076 39.3803 43.5308 39.1339 43.5308H34.5344C34.3291 43.5308 34.2059 43.4487 34.1237 43.2845L31.7419 36.4263ZM23.2411 31.95H30.4277C29.5653 29.2396 27.6352 23.5314 26.8139 20.6567H26.7728C26.1157 23.4082 24.4731 28.213 23.2411 31.95Z" fill="#FE9900"/>
</g>
<defs>
<clipPath id="clip0_62_97">
<rect width="61.6" height="60" fill="white" transform="translate(0.600006)"/>
</clipPath>
</defs>
</svg>
