<svg width="62" height="61" viewBox="0 0 62 61" fill="none" xmlns="http://www.w3.org/2000/svg">
<path d="M38.7403 29.5467C38.7403 33.3906 38.7236 37.2178 38.7403 41.0618C38.7403 42.4657 38.7737 42.4657 37.42 42.9336C35.0301 43.8027 32.59 44.1704 30.0664 43.7024C26.5065 43.0339 23.9996 40.5604 23.2308 36.9672C22.7595 34.8174 22.7824 32.5888 23.2977 30.4492C23.7784 28.5293 24.8472 26.8078 26.3544 25.5252C27.8617 24.2427 29.7322 23.4633 31.7042 23.2961C32.3576 23.2068 33.0184 23.1844 33.6763 23.2292C34.1276 23.2961 34.278 23.1122 34.2613 22.6443C34.2446 20.9229 34.2613 19.2014 34.2613 17.48C34.2613 16.494 34.278 16.494 35.2139 16.494H38.0718C38.5732 16.4772 38.7236 16.6611 38.7236 17.1625C38.7069 21.2905 38.7236 25.4186 38.7236 29.5467H38.7403ZM34.2613 33.4742V30.6831C34.2613 29.7305 34.2279 28.7779 34.278 27.842C34.2947 27.2904 34.0607 27.1066 33.5928 27.0397C32.4261 26.8465 31.2286 27.0663 30.2066 27.6612C29.1846 28.2561 28.4021 29.1888 27.994 30.2987C27.2419 32.2374 27.2252 34.2263 27.7433 36.1817C28.5288 39.2401 30.9354 40.3599 33.6095 39.8752C34.0774 39.7916 34.278 39.5744 34.278 39.0563C34.2446 37.2011 34.2613 35.3293 34.2613 33.4742Z" fill="#ADAAA4"/>
<path d="M33.0078 30.1485V42.8168C33.0078 43.736 33.0078 43.736 32.0886 43.736H29.4146C28.6625 43.736 28.629 43.7026 28.629 42.9338C28.629 37.7695 28.6123 32.5886 28.6123 27.4076V17.4969C28.6123 16.678 28.6458 16.6445 29.4647 16.6445H32.2557C32.9744 16.6445 33.0245 16.6947 33.0245 17.3966V30.1318L33.0078 30.1485Z" fill="#ADAAA4"/>
<path d="M30.9187 0.21575C37.5537 0.21575 44.172 0.265889 50.807 0.199037C55.52 0.148899 60.1828 3.52489 61.3527 8.53873C61.5315 9.29483 61.6267 10.0682 61.6369 10.8451C61.6369 23.714 61.6313 36.5773 61.6201 49.435C61.6201 54.7831 57.6091 59.3123 52.2944 60.0643C51.6301 60.1588 50.9598 60.2035 50.2889 60.198H11.3814C6.95253 60.198 3.55983 58.3262 1.33703 54.4655C0.464671 52.9027 0.00993547 51.1413 0.0167128 49.3514C-0.00557094 36.6385 -0.00557094 23.9145 0.0167128 11.1794C0.0334256 5.48029 4.0445 1.10153 9.37589 0.282601C9.98585 0.210306 10.6007 0.187948 11.2143 0.21575H30.9187ZM30.8686 57.5741H49.5702C50.2721 57.5741 50.9574 57.5908 51.6426 57.4237C56.2386 56.3708 59.0798 52.7107 59.0965 47.8473V13.5191C59.0965 12.7169 59.0631 11.9147 58.9962 11.0958C58.5617 6.46634 54.5506 2.7561 49.9045 2.73939H11.816C6.76869 2.7561 2.64062 6.91759 2.64062 11.9816V48.2985C2.63468 48.8012 2.6626 49.3037 2.72419 49.8027C3.44284 54.2483 7.50405 57.6911 12.1502 57.6076C18.3841 57.4906 24.6347 57.5741 30.8686 57.5741Z" fill="#ACA9A4"/>
<path d="M59.0464 47.8639C59.0464 52.744 56.1885 56.3874 51.6092 57.457C50.9202 57.5818 50.2198 57.6323 49.5201 57.6075H30.8184C24.5845 57.6075 18.3339 57.5072 12.1001 57.6409C7.4539 57.7244 3.39269 54.2649 2.69075 49.836C2.61582 49.3382 2.58228 48.8351 2.59047 48.3318V11.9982C2.59916 9.56277 3.56706 7.22885 5.28447 5.50206C7.00187 3.77527 9.33048 2.79467 11.7658 2.77271H49.8543C54.5172 2.77271 58.5116 6.49966 58.9461 11.1291C59.0129 11.9313 59.0464 12.7335 59.0464 13.5358V47.8639Z" fill="#5D5954"/>
<path d="M43.1191 29.5635C43.1191 33.4075 43.1024 37.2347 43.1191 41.0786C43.1358 42.4825 43.1525 42.4825 41.8155 42.9505C39.4255 43.8195 36.9855 44.1872 34.4451 43.7193C30.8853 43.0508 28.3784 40.5773 27.6263 36.984C27.1495 34.8355 27.1667 32.6069 27.6764 30.466C28.1617 28.5485 29.2317 26.8296 30.7381 25.5479C32.2445 24.2661 34.1125 23.485 36.083 23.3129C36.7364 23.224 37.3971 23.2016 38.0551 23.2461C38.5063 23.3129 38.6567 23.1291 38.6567 22.6611C38.6233 20.9397 38.64 19.2183 38.64 17.4969C38.64 16.5108 38.6567 16.5108 39.5927 16.5108C40.5286 16.5108 41.4979 16.5442 42.4506 16.5108C42.9686 16.4941 43.1191 16.6779 43.1191 17.1793C43.0968 21.313 43.0912 25.441 43.1024 29.5635H43.1191ZM38.64 33.491V30.7C38.64 29.7474 38.6066 28.7947 38.6567 27.8588C38.6902 27.3073 38.4395 27.1234 37.9715 27.0566C36.8049 26.8633 35.6073 27.0831 34.5853 27.678C33.5633 28.2729 32.7808 29.2057 32.3727 30.3156C31.6374 32.2543 31.6206 34.2431 32.122 36.1985C32.9075 39.2569 35.3309 40.3767 37.9882 39.892C38.4729 39.8085 38.6567 39.5912 38.6567 39.0731C38.6233 37.218 38.64 35.3461 38.64 33.491Z" fill="#ADAAA4"/>
<path d="M22.9133 29.9645V42.6496C22.9133 43.5688 22.8965 43.5688 21.9773 43.5688H19.3033C18.5512 43.5688 18.5178 43.5353 18.5178 42.7833V17.3129C18.5178 16.494 18.5345 16.4773 19.3701 16.4773H22.1612C22.8631 16.4773 22.9133 16.5274 22.9133 17.2461V29.9645Z" fill="#ADAAA4"/>
</svg>
