<svg width="62" height="60" viewBox="0 0 62 60" fill="none" xmlns="http://www.w3.org/2000/svg">
<g clip-path="url(#clip0_62_90)">
<path d="M50.6917 60H10.9083C4.87667 60 0 55.1282 0 49.1026V10.8974C0 4.87179 4.87667 0 10.9083 0H50.6917C56.7233 0 61.6 4.87179 61.6 10.8974V49.1026C61.6 55.1282 56.7233 60 50.6917 60Z" fill="#30A8F9"/>
<path d="M49.7163 57.436H11.8837C6.75033 57.436 2.56667 53.2565 2.56667 48.1283V11.8719C2.56667 6.7437 6.75033 2.56421 11.8837 2.56421H49.6907C54.8497 2.56421 59.0077 6.7437 59.0077 11.8719V48.1027C59.0333 53.2565 54.8497 57.436 49.7163 57.436Z" fill="#001E38"/>
<path d="M47.0804 27.9583C45.8073 27.2602 43.754 26.7674 41.947 26.7674C39.7705 26.7674 39.0313 27.6709 39.0313 28.5333C39.0313 29.4367 39.6473 30.0527 42.2756 31.0794C46.9572 32.8042 48.5588 34.6522 48.5588 37.5679C48.5588 41.4282 45.5198 43.8511 40.4686 43.8511C38.0457 43.8511 35.9102 43.3994 34.6782 42.7013C34.4729 42.5781 34.3908 42.4959 34.3908 42.2495V38.3482C34.3908 38.1429 34.555 38.0607 34.7193 38.1429C36.4852 39.2927 38.7438 39.7855 40.5918 39.7855C42.7273 39.7855 43.754 39.0463 43.754 37.9786C43.754 36.9519 42.9737 36.2949 40.4276 35.2682C35.9513 33.6255 34.3497 31.7775 34.3497 28.8207C34.3497 25.6997 36.8958 22.7839 42.0292 22.7839C44.411 22.7839 46.218 23.1125 47.2036 23.6053C47.4089 23.7285 47.45 23.8927 47.45 24.0981V27.7119C47.45 27.9173 47.3268 28.0405 47.0804 27.9583Z" fill="#30A8F9"/>
<path d="M14.3804 43.1529V16.8292C14.3804 16.6238 14.4625 16.5006 14.6679 16.5006C16.2284 16.4596 19.2673 16.3774 22.2652 16.3774C30.2321 16.3774 33.1889 20.8126 33.1889 25.33C33.1889 31.8596 28.1377 34.6932 21.9367 34.6932C20.6225 34.6932 20.294 34.6932 19.3495 34.6932V43.1118C19.3495 43.3172 19.2673 43.4404 19.0209 43.4404H14.7089C14.5036 43.4404 14.3804 43.3582 14.3804 43.1529ZM19.3495 20.7716V30.299C20.0476 30.3401 20.5815 30.3401 21.9367 30.3401C25.3863 30.3401 28.302 29.1902 28.302 25.4532C28.302 22.4553 26.1665 20.6894 22.3884 20.6894C20.9511 20.6894 19.8012 20.7305 19.3495 20.7716Z" fill="#30A8F9"/>
</g>
<defs>
<clipPath id="clip0_62_90">
<rect width="61.6" height="60" fill="white"/>
</clipPath>
</defs>
</svg>
