<svg width="33" height="33" viewBox="0 0 33 33" fill="none" xmlns="http://www.w3.org/2000/svg">
<g filter="url(#filter0_d_2005_19)">
<path d="M0 33L0.617488 30.7381C1.16373 28.7485 1.71591 26.7529 2.25027 24.7574C2.28495 24.6083 2.26821 24.4518 2.20277 24.3133C0.611551 21.4414 -0.0831234 18.3564 0.189996 15.0996C0.587801 10.3921 2.66589 6.53727 6.353 3.5588C8.38359 1.91857 10.6992 0.817186 13.2701 0.331631C18.4831 -0.63948 23.1796 0.509273 27.2407 3.93777C30.156 6.39515 32.0025 9.52166 32.6913 13.2699C33.5937 18.1551 32.5131 22.5961 29.4316 26.4983C26.8192 29.8143 23.3696 31.8158 19.2015 32.5086C15.645 33.0948 12.2488 32.5322 9.0367 30.892C8.81702 30.7854 8.62702 30.7499 8.38953 30.8091C5.72958 31.5138 3.06963 32.2066 0.403742 32.9053L0 33ZM3.96618 29.1037C5.59302 28.6774 7.16049 28.2747 8.71609 27.8543C9.00702 27.7774 9.23264 27.8188 9.48795 27.9668C12.6585 29.838 16.0428 30.3946 19.6349 29.5893C27.3179 27.8662 31.9669 19.8131 29.5979 12.3402C27.5257 5.79709 21.1312 1.8712 14.3091 2.97258C8.1936 3.96145 3.24181 9.14268 2.93901 15.7747C2.81432 18.4926 3.45556 21.0447 4.89834 23.36C5.24271 23.9107 5.30209 24.3666 5.11209 24.9706C4.69647 26.3207 4.35211 27.6885 3.96618 29.1037Z" fill="#999999"/>
<path d="M8.18766 12.6659C8.21141 11.3158 8.73984 10.1967 9.69576 9.267C10.0164 8.95316 10.3904 8.78736 10.8417 8.79921C11.0851 8.79921 11.3285 8.82881 11.566 8.81105C11.9757 8.77552 12.231 8.98277 12.3735 9.32621C12.8604 10.4454 13.3413 11.5704 13.7866 12.7133C13.8579 12.8968 13.7926 13.2047 13.6797 13.3824C13.3813 13.8445 13.0541 14.2875 12.7001 14.7088C12.4566 15.0048 12.421 15.2595 12.6229 15.6029C13.9647 17.8175 15.8053 19.4281 18.2278 20.3815C18.6137 20.5354 18.8215 20.494 19.0768 20.1802C19.4924 19.6768 19.914 19.1735 20.3059 18.6524C20.5256 18.3682 20.7868 18.2439 21.1134 18.3978C22.2949 18.9485 23.4764 19.5051 24.6461 20.0854C24.7708 20.1446 24.8777 20.3578 24.8836 20.4999C24.9311 21.7138 24.5689 22.7323 23.4764 23.4369C22.1227 24.3192 20.7037 24.3903 19.1896 23.9699C15.3066 22.8803 12.4329 20.4644 10.1173 17.2787C9.35733 16.2247 8.65671 15.1351 8.36578 13.8502C8.27078 13.4594 8.2411 13.0626 8.18766 12.6659Z" fill="#999999"/>
</g>
<defs>
<filter id="filter0_d_2005_19" x="-4" y="-0.00012207" width="40.9991" height="41.0002" filterUnits="userSpaceOnUse" color-interpolation-filters="sRGB">
<feFlood flood-opacity="0" result="BackgroundImageFix"/>
<feColorMatrix in="SourceAlpha" type="matrix" values="0 0 0 0 0 0 0 0 0 0 0 0 0 0 0 0 0 0 127 0" result="hardAlpha"/>
<feOffset dy="4"/>
<feGaussianBlur stdDeviation="2"/>
<feComposite in2="hardAlpha" operator="out"/>
<feColorMatrix type="matrix" values="0 0 0 0 0 0 0 0 0 0 0 0 0 0 0 0 0 0 0.25 0"/>
<feBlend mode="normal" in2="BackgroundImageFix" result="effect1_dropShadow_2005_19"/>
<feBlend mode="normal" in="SourceGraphic" in2="effect1_dropShadow_2005_19" result="shape"/>
</filter>
</defs>
</svg>
