<svg width="63" height="63" viewBox="0 0 63 63" fill="none" xmlns="http://www.w3.org/2000/svg">
<g clip-path="url(#clip0_2006_59)">
<path d="M33.5561 62.1516H29.4444C28.6747 62.0706 27.9253 61.9895 27.1758 61.868C19.9043 60.7743 13.6861 57.6145 8.72369 52.166C2.18138 44.9957 -0.451745 36.4887 0.804054 26.8677C1.75603 19.576 5.03731 13.3577 10.4656 8.3953C17.6561 1.83274 26.1833 -0.820644 35.8246 0.455409C43.0961 1.42764 49.2333 4.70892 54.2363 10.0967C58.3254 14.436 61.0327 19.8928 62.0141 25.7739C62.1964 26.8677 62.3382 27.9817 62.5002 29.0957V33.2074C62.399 33.9569 62.3382 34.6861 62.2167 35.4152C61.1229 42.8082 57.8619 49.067 52.3526 54.0902C48.0474 58.0682 42.6776 60.7073 36.8981 61.6857C35.7841 61.868 34.6701 61.9895 33.5561 62.1516ZM58.6316 31.1415C58.6275 25.7734 57.0318 20.5271 54.0461 16.0659C51.0605 11.6047 46.819 8.12911 41.858 6.07854C36.897 4.02797 31.4394 3.49455 26.1752 4.54574C20.9111 5.59693 16.0769 8.18551 12.2839 11.9841C8.49092 15.7828 5.90956 20.6208 4.86623 25.8865C3.8229 31.1523 4.36446 36.6091 6.42243 41.567C8.4804 46.5249 11.9624 50.7612 16.428 53.7403C20.8936 56.7193 26.1423 58.3072 31.5104 58.3032C35.0754 58.3032 38.6054 57.6003 41.8986 56.2348C45.1917 54.8693 48.1833 52.868 50.7023 50.3452C53.2212 47.8225 55.2181 44.8279 56.5787 41.5327C57.9393 38.2376 58.6369 34.7065 58.6316 31.1415Z" fill="#5D5954"/>
<path d="M58.6316 31.1412C58.6356 36.5102 57.0471 41.7597 54.0672 46.2257C51.0873 50.6918 46.8498 54.1737 41.8907 56.2311C36.9316 58.2885 31.4737 58.8289 26.2075 57.7839C20.9412 56.7389 16.1032 54.1555 12.3054 50.3606C8.50753 46.5656 5.92055 41.7295 4.87164 36.464C3.82274 31.1985 4.35905 25.7402 6.41273 20.7796C8.4664 15.8189 11.9452 11.5788 16.409 8.5956C20.8728 5.61236 26.1212 4.02003 31.4901 4.02003C35.0534 4.01737 38.5823 4.71691 41.8751 6.07869C45.168 7.44047 48.1602 9.43778 50.6808 11.9565C53.2014 14.4752 55.2009 17.4659 56.5651 20.7577C57.9294 24.0495 58.6316 27.5779 58.6316 31.1412ZM43.6632 45.8867C43.724 45.7652 43.7848 45.7044 43.805 45.6437C45.0203 41.5927 46.2559 37.5418 47.4306 33.4908C48.018 31.4856 48.2003 29.4196 47.7142 27.3536C47.2281 25.2876 46.3571 23.8292 45.4052 22.1886C44.7695 21.1437 44.2402 20.0376 43.8253 18.8871C42.9543 16.2337 44.6557 13.3372 47.4306 13.1549L47.8965 13.0537C35.9259 2.35913 18.3852 6.10627 11.134 17.773H13.2405L18.9726 17.4692C19.722 17.449 20.1879 17.7933 20.2284 18.4009C20.2689 19.0086 19.9043 19.3529 19.1954 19.4542L16.5218 19.7175L25.3731 46.069L25.5352 45.907C27.2568 40.742 28.9785 35.5568 30.6799 30.3918C30.7337 30.2054 30.7266 30.0067 30.6596 29.8247C29.4849 26.5636 28.3101 23.3229 27.0948 20.0618C27.0373 19.9616 26.9586 19.8752 26.8641 19.8087C26.7696 19.7422 26.6617 19.6973 26.5479 19.677C25.7985 19.5555 25.0288 19.5352 24.2794 19.4137C23.53 19.2922 23.3679 18.725 23.5907 18.1174C23.8135 17.5097 24.4212 17.4692 25.0086 17.4692C27.824 17.5705 30.6394 17.6718 33.4751 17.692C34.7106 17.7123 35.9664 17.5502 37.2019 17.4692C38.0324 17.4287 38.4577 17.7123 38.5185 18.2997C38.5793 18.8871 38.2755 19.3529 37.445 19.4542C36.6146 19.5555 35.7639 19.6162 34.8524 19.6973C37.7893 28.4473 40.706 37.1367 43.6632 45.8867ZM39.5718 54.2317C37.0399 47.2641 34.5081 40.3369 31.9154 33.2477L24.5832 54.5963C29.6469 56.0547 34.6296 55.8926 39.5718 54.2317ZM9.20979 21.2164C3.61946 33.5921 9.51362 47.8717 20.8361 53.0772C16.9471 42.4434 13.0987 31.8907 9.20979 21.2164ZM52.9399 19.5757V19.8593C53.2769 22.835 52.9305 25.8484 51.9272 28.6701C49.3143 36.3265 46.6407 43.9423 43.9873 51.5783C43.9265 51.7606 43.886 51.9632 43.8253 52.186C55.4313 45.6437 59.1582 30.5133 52.9399 19.5757Z" fill="#ADAAA4"/>
<path d="M43.6633 45.8867C40.7061 37.1367 37.7894 28.4473 34.8524 19.6973C35.7639 19.6162 36.6146 19.5757 37.445 19.4542C38.2755 19.3327 38.5996 18.9681 38.5185 18.2997C38.4375 17.6313 38.0324 17.4287 37.202 17.4692C35.9664 17.5503 34.7106 17.7123 33.4751 17.692C30.6394 17.6718 27.824 17.5705 25.0086 17.4692C24.4212 17.4692 23.8541 17.4287 23.5907 18.1174C23.3274 18.8061 23.6515 19.3124 24.2794 19.4137C24.9073 19.515 25.7985 19.5555 26.548 19.677C26.6617 19.6973 26.7696 19.7422 26.8641 19.8087C26.9586 19.8752 27.0374 19.9616 27.0948 20.0619C28.3101 23.3229 29.4849 26.5636 30.6597 29.8247C30.7266 30.0067 30.7337 30.2054 30.6799 30.3918C28.9785 35.5568 27.2569 40.742 25.5352 45.907L25.3732 46.069L16.5218 19.7175L19.1955 19.4542C19.9044 19.3529 20.269 18.9478 20.2284 18.401C20.1879 17.8541 19.7221 17.449 18.9726 17.4692L13.2405 17.7731H11.134C18.3853 6.10628 35.9259 2.35914 47.8965 13.0537L47.4307 13.155C44.6558 13.3373 42.9544 16.2337 43.8253 18.8871C44.2402 20.0376 44.7695 21.1437 45.4052 22.1886C46.3572 23.8293 47.2889 25.4699 47.7142 27.3536C48.1396 29.2373 48.0181 31.4856 47.4307 33.4908C46.2559 37.5418 45.0203 41.5927 43.8051 45.6437C43.7848 45.7045 43.724 45.7652 43.6633 45.8867Z" fill="#5D5954"/>
<path d="M39.5718 54.2318C34.6296 55.8927 29.6469 56.0547 24.5832 54.5964L31.9154 33.2478C34.5081 40.337 37.0399 47.2641 39.5718 54.2318Z" fill="#5D5954"/>
<path d="M9.20981 21.2163C13.0987 31.8906 16.9471 42.4434 20.8361 53.0771C9.51363 47.8716 3.61948 33.592 9.20981 21.2163Z" fill="#5D5954"/>
<path d="M52.9399 19.5757C59.1582 30.5133 55.4313 45.6436 43.8253 52.1859C43.886 51.9631 43.9265 51.7606 43.9873 51.5783C46.6407 43.9422 49.3143 36.3264 51.9272 28.6701C52.9305 25.8484 53.2769 22.835 52.9399 19.8593V19.5757Z" fill="#5D5954"/>
</g>
<defs>
<clipPath id="clip0_2006_59">
<rect width="62" height="62" fill="white" transform="translate(0.5 0.144531)"/>
</clipPath>
</defs>
</svg>
